<svg width="71" height="51" viewBox="0 0 71 51" fill="none" xmlns="http://www.w3.org/2000/svg">
<path d="M30.8038 17.4748C32.543 15.4289 34.58 13.9311 36.9148 12.9817C39.2533 12.067 41.6478 11.77 44.0984 12.0907C46.5326 12.4308 48.7838 13.3962 50.8521 14.9871C52.9204 16.578 54.3758 18.4795 55.2184 20.6918C56.061 22.9041 56.2468 25.1858 55.7758 27.537C55.3085 29.9228 54.2052 32.1388 52.4659 34.1847C51.0548 35.8447 49.4656 37.1282 47.6982 38.0352C45.9308 38.9423 44.0728 39.4285 42.1243 39.4939L41.8122 35.2316C44.7058 35.0312 47.0632 33.8598 48.8845 31.7173C50.0659 30.3276 50.8029 28.8355 51.0956 27.2411C51.4084 25.6621 51.2651 24.1313 50.6656 22.6487C50.0662 21.1661 49.0536 19.8765 47.6279 18.7799C46.2022 17.6832 44.6646 17.0113 43.015 16.764C41.3654 16.5167 39.7517 16.6961 38.1739 17.302C36.6162 17.9234 35.2466 18.9289 34.0652 20.3187C32.2439 22.4611 31.5431 24.9068 31.9627 27.6557L27.4857 28.2343C27.1451 26.4081 27.2643 24.5685 27.8433 22.7154C28.4058 20.8816 29.3927 19.1348 30.8038 17.4748Z" fill="white"/>
<path d="M39.1238 34.665C37.1987 36.5372 35.0287 37.836 32.6137 38.5612C30.1983 39.2516 27.7852 39.322 25.3744 38.7725C22.9818 38.2054 20.8302 37.0331 18.9198 35.2558C17.0094 33.4785 15.7386 31.4496 15.1076 29.1692C14.4765 26.8888 14.5062 24.601 15.1966 22.3059C15.8867 19.9759 17.1942 17.8748 19.1192 16.0026C20.681 14.4836 22.3849 13.3559 24.2307 12.6195C26.0765 11.8831 27.973 11.5739 29.9201 11.692L29.8298 15.9623C26.9287 15.8897 24.4702 16.8337 22.4544 18.7943C21.1468 20.066 20.2722 21.4813 19.8306 23.0403C19.3704 24.582 19.3691 26.1186 19.8267 27.6501C20.2842 29.1816 21.1715 30.56 22.4884 31.7851C23.8053 33.0102 25.2736 33.8234 26.8934 34.2245C28.5133 34.6256 30.1375 34.5988 31.7662 34.1442C33.3763 33.6724 34.8352 32.8006 36.1427 31.5288C38.1586 29.5683 39.0868 27.2007 38.9276 24.4261L43.4415 24.2713C43.6089 26.1203 43.317 27.9395 42.5659 29.7289C41.8329 31.5006 40.6856 33.146 39.1238 34.665Z" fill="white"/>
</svg>
